<?xml version="1.0" encoding="UTF-8" standalone="no"?>
<svg
   viewBox="0 0 512.06018 512"
   version="1.1"
   id="svg28"
   sodipodi:docname="b621f432af255d0b19d164f2869d4e14.svg"
   width="512.06018"
   height="512"
   xmlns:inkscape="http://www.inkscape.org/namespaces/inkscape"
   xmlns:sodipodi="http://sodipodi.sourceforge.net/DTD/sodipodi-0.dtd"
   xmlns="http://www.w3.org/2000/svg"
   xmlns:svg="http://www.w3.org/2000/svg">
  <defs
     id="defs32" />
  <sodipodi:namedview
     id="namedview30"
     pagecolor="#ffffff"
     bordercolor="#666666"
     borderopacity="1.0"
     inkscape:pageshadow="2"
     inkscape:pageopacity="0.0"
     inkscape:pagecheckerboard="0" />
  <g
     data-name="Layer 3"
     id="g26"
     transform="translate(0.05999538,-0.04865062)">
    <path
       d="m 512,256 a 255.16,255.16 0 0 1 -75,181 q -2,2 -4.06,4 a 256,256 0 1 1 79,-185 z"
       fill="#fff3da"
       id="path2" />
    <path
       d="m 433,441 a 256,256 0 0 1 -354,0 192.13,192.13 0 0 1 95.15,-25 H 337.81 A 192.13,192.13 0 0 1 433,441 Z"
       fill="#f9a0a9"
       id="path4" />
    <path
       d="m 256,439.26 c -20.33,0 -36.81,-2.6 -36.81,-22.94 v -54.73 h 73.62 v 54.73 c 0,20.34 -16.48,22.94 -36.81,22.94 z m 0,-244.04 a 6,6 0 0 1 -6,-6 v -74.76 a 6,6 0 1 1 12,0 v 74.76 a 6,6 0 0 1 -6,6 z"
       fill="#f37582"
       id="path6" />
    <path
       d="m 202.53,150.55 h 106.94 a 111.78,111.78 0 0 1 111.78,111.79 v 94.49 A 26.67,26.67 0 0 1 394.58,383.5 H 117.41 A 26.67,26.67 0 0 1 90.74,356.83 V 262.34 A 111.78,111.78 0 0 1 202.53,150.55 Z"
       fill="#f9a0a9"
       id="path8" />
    <path
       d="m 196.21,150.55 h 119.58 v 27.86 A 59.79,59.79 0 0 1 256,238.21 59.79,59.79 0 0 1 196.21,178.42 Z"
       fill="#f37582"
       id="path10" />
    <circle
       cx="180.59"
       cy="281.51999"
       r="31.75"
       fill="#9ddefb"
       id="circle12" />
    <path
       d="m 180.59,319.27 a 37.75,37.75 0 1 1 37.75,-37.75 37.79,37.79 0 0 1 -37.75,37.75 z m 0,-63.5 a 25.75,25.75 0 1 0 25.75,25.75 25.78,25.78 0 0 0 -25.75,-25.75 z"
       fill="#e2f6fe"
       id="path14" />
    <path
       d="m 256,360.79 a 24.73,24.73 0 0 1 -24.7,-24.7 6,6 0 0 1 12,0 12.7,12.7 0 1 0 25.4,0 6,6 0 0 1 12,0 24.73,24.73 0 0 1 -24.7,24.7 z"
       fill="#f37582"
       id="path16" />
    <circle
       cx="331.41"
       cy="281.51999"
       r="31.75"
       fill="#9ddefb"
       id="circle18" />
    <path
       d="m 331.41,319.27 a 37.75,37.75 0 1 1 37.75,-37.75 37.79,37.79 0 0 1 -37.75,37.75 z m 0,-63.5 a 25.75,25.75 0 1 0 25.75,25.75 25.78,25.78 0 0 0 -25.75,-25.75 z"
       fill="#e2f6fe"
       id="path20" />
    <circle
       cx="256.5"
       cy="89.160004"
       r="30.26"
       fill="#fcad6b"
       id="circle22" />
    <path
       d="m 273.07,90.24 a 3.5,3.5 0 0 1 -3.5,-3.5 10.66,10.66 0 0 0 -10.65,-10.64 3.5,3.5 0 0 1 0,-7 17.66,17.66 0 0 1 17.65,17.64 3.5,3.5 0 0 1 -3.5,3.5 z"
       fill="#ffffff"
       id="path24" />
  </g>
</svg>
