<?xml version="1.0" encoding="UTF-8" standalone="no"?>
<svg
   data-name="Layer 1"
   viewBox="0 0 512 512.0072"
   version="1.1"
   id="svg28"
   sodipodi:docname="b29f2f0a68abd053080a670eaf0f5050.svg"
   width="512"
   height="512.0072"
   xmlns:inkscape="http://www.inkscape.org/namespaces/inkscape"
   xmlns:sodipodi="http://sodipodi.sourceforge.net/DTD/sodipodi-0.dtd"
   xmlns="http://www.w3.org/2000/svg"
   xmlns:svg="http://www.w3.org/2000/svg">
  <defs
     id="defs32" />
  <sodipodi:namedview
     id="namedview30"
     pagecolor="#ffffff"
     bordercolor="#666666"
     borderopacity="1.0"
     inkscape:pageshadow="2"
     inkscape:pageopacity="0.0"
     inkscape:pagecheckerboard="0" />
  <rect
     width="512"
     height="512"
     rx="256"
     fill="#ffd683"
     id="rect2"
     x="0"
     y="0" />
  <path
     d="m 426.34,447.11 a 256,256 0 0 1 -340.68,0 45.08,45.08 0 0 1 12,-1.63 h 316.65 a 45.08,45.08 0 0 1 12.03,1.63 z"
     fill="#6d6bde"
     id="path4" />
  <path
     d="m 305.11,413.52 h -98.22 v 32 c 0,35.21 98.22,35.21 98.22,0 z"
     fill="#8483ed"
     id="path6" />
  <rect
     width="512"
     height="512"
     rx="256"
     fill="none"
     id="rect8"
     x="0"
     y="0" />
  <circle
     cx="256"
     cy="123.22"
     r="55.34"
     fill="#fb9b47"
     id="circle10" />
  <path
     d="m 291.51,113.71 a 3.5,3.5 0 0 1 -3.5,-3.5 21.14,21.14 0 0 0 -21.12,-21.12 3.5,3.5 0 0 1 0,-7 28.15,28.15 0 0 1 28.11,28.12 3.5,3.5 0 0 1 -3.49,3.5 z"
     fill="#ffffff"
     id="path12" />
  <ellipse
     cx="142.64"
     cy="292.16"
     rx="48.82"
     ry="55.34"
     fill="#6d6bde"
     id="ellipse14" />
  <ellipse
     cx="369.35999"
     cy="292.16"
     rx="48.82"
     ry="55.34"
     fill="#6d6bde"
     id="ellipse16" />
  <path
     d="m 196.74,150.56 h 118.52 a 11.38,11.38 0 0 1 11.38,11.38 v 12.35 H 185.36 v -12.35 a 11.38,11.38 0 0 1 11.38,-11.38 z"
     fill="#6d6bde"
     id="path18" />
  <rect
     x="134.86"
     y="171.02"
     width="242.28"
     height="242.28"
     rx="32.470001"
     fill="#ffffff"
     id="rect20" />
  <path
     d="m 332.21,395.15 -151.34,0.79 c -15.31,0.08 -28.57,-12.26 -28.65,-27.57 V 217 a 27.72,27.72 0 0 1 27.57,-27.86 l 151.34,-0.79 A 27.72,27.72 0 0 1 359,216 l 0.79,151.34 a 27.72,27.72 0 0 1 -27.58,27.81 z"
     fill="#8483ed"
     id="path22" />
  <path
     d="m 342.6,248.62 a 4,4 0 0 1 -4,-4 l -0.09,-18 a 18,18 0 0 0 -18,-17.89 h -0.09 l -19.25,0.1 a 4,4 0 0 1 0,-8 l 19.25,-0.1 h 0.13 a 26,26 0 0 1 26,25.85 l 0.09,18 a 4,4 0 0 1 -4,4 z"
     fill="#a7a6f8"
     id="path24" />
  <path
     d="m 213,302.73 a 31.51,31.51 0 0 1 -31.51,-31.35 3.5,3.5 0 0 1 3.48,-3.51 3.49,3.49 0 0 1 3.5,3.48 24.51,24.51 0 0 0 24.53,24.38 h 0.13 a 24.51,24.51 0 0 0 24.38,-24.64 3.5,3.5 0 0 1 3.48,-3.51 3.5,3.5 0 0 1 3.5,3.48 31.5,31.5 0 0 1 -31.35,31.67 z m 85.74,-0.45 a 31.5,31.5 0 0 1 -31.5,-31.34 3.5,3.5 0 0 1 3.48,-3.52 3.51,3.51 0 0 1 3.5,3.48 24.5,24.5 0 0 0 24.51,24.38 h 0.13 a 24.54,24.54 0 0 0 24.38,-24.63 3.5,3.5 0 0 1 3.48,-3.52 3.5,3.5 0 0 1 3.5,3.48 31.54,31.54 0 0 1 -31.35,31.67 z m -42.68,42.9 c -11.81,0 -22.48,-4.95 -27.89,-12.94 a 3.5002286,3.5002286 0 0 1 5.8,-3.92 c 4.06,6 12.72,9.86 22.09,9.86 h 0.18 c 9.44,-0.05 18.14,-4 22.16,-10.09 a 3.5001857,3.5001857 0 1 1 5.84,3.86 c -5.35,8.1 -16.07,13.17 -28,13.23 z"
     fill="#5553b7"
     id="path26" />
</svg>
