<?xml version="1.0" encoding="UTF-8" standalone="no"?>
<svg
   data-name="Layer 1"
   viewBox="0 0 230.40005 230.40269"
   version="1.1"
   id="svg57"
   sodipodi:docname="cf007e5a3d1ed3fdfb2b422441ed3d88.svg"
   width="230.40004"
   height="230.40268"
   xmlns:inkscape="http://www.inkscape.org/namespaces/inkscape"
   xmlns:sodipodi="http://sodipodi.sourceforge.net/DTD/sodipodi-0.dtd"
   xmlns="http://www.w3.org/2000/svg"
   xmlns:svg="http://www.w3.org/2000/svg">
  <sodipodi:namedview
     id="namedview59"
     pagecolor="#ffffff"
     bordercolor="#666666"
     borderopacity="1.0"
     inkscape:pageshadow="2"
     inkscape:pageopacity="0.0"
     inkscape:pagecheckerboard="0" />
  <defs
     id="defs29">
    <linearGradient
       id="prefix2__a"
       x1="112.64"
       y1="230.39999"
       x2="112.64"
       y2="19.639999"
       gradientUnits="userSpaceOnUse"
       gradientTransform="translate(-2.3222645e-7,-0.00731471)">
      <stop
         offset="0"
         stop-color="#64d9a8"
         id="stop2" />
      <stop
         offset="0.36"
         stop-color="#8483ed"
         id="stop4" />
      <stop
         offset="0.38"
         stop-color="#8f7de8"
         id="stop6" />
      <stop
         offset="0.47"
         stop-color="#b866d4"
         id="stop8" />
      <stop
         offset="0.54"
         stop-color="#d556c6"
         id="stop10" />
      <stop
         offset="0.61"
         stop-color="#e74cbe"
         id="stop12" />
      <stop
         offset="0.66"
         stop-color="#ed49bb"
         id="stop14" />
      <stop
         offset="0.67"
         stop-color="#ed4cb9"
         id="stop16" />
      <stop
         offset="0.75"
         stop-color="#f4799c"
         id="stop18" />
      <stop
         offset="0.82"
         stop-color="#f99d84"
         id="stop20" />
      <stop
         offset="0.89"
         stop-color="#fcb774"
         id="stop22" />
      <stop
         offset="0.95"
         stop-color="#fec76a"
         id="stop24" />
      <stop
         offset="1"
         stop-color="#fc6"
         id="stop26" />
    </linearGradient>
  </defs>
  <path
     d="m 230.4,115.19269 a 115,115 0 0 1 -45.33,91.59 c -1.11,0.86 -2.24,1.69 -3.39,2.5 -1.15,0.81 -2.24,1.56 -3.38,2.29 a 112.3,112.3 0 0 1 -16.23,8.88 c -2.22,1 -4.48,1.92 -6.78,2.77 a 113.67,113.67 0 0 1 -13.12,4 q -3.34,0.81 -6.77,1.41 a 113.61,113.61 0 0 1 -16.09,1.69 c -1.36,0.06 -2.73,0.08 -4.11,0.08 h -2.67 a 113.71,113.71 0 0 1 -16.93,-1.63 q -3.42,-0.57 -6.77,-1.37 a 114,114 0 0 1 -30.23,-11.86 q -4.05,-2.28 -7.88,-4.88 c -1.12,-0.76 -2.24,-1.54 -3.33,-2.35 l -0.76,-0.55 c -0.89,-0.66 -1.77,-1.33 -2.63,-2 a 115.2,115.2 0 1 1 186.4,-90.57 z"
     fill="#d9deeb"
     id="path31" />
  <path
     d="m 47.39,208.31269 c 1.09,0.81 2.21,1.59 3.33,2.35 q 3.83,2.6 7.88,4.88 a 114,114 0 0 0 30.23,11.81 q 3.35,0.79 6.77,1.37 a 113.71,113.71 0 0 0 16.93,1.63 h 2.67 c 1.38,0 2.75,0 4.11,-0.08 a 113.61,113.61 0 0 0 16.09,-1.69 q 3.42,-0.6 6.77,-1.41 a 113.67,113.67 0 0 0 13.12,-4 c 2.3,-0.85 4.56,-1.78 6.78,-2.77 a 112.3,112.3 0 0 0 16.23,-8.88 c 1.14,-0.73 2.27,-1.5 3.38,-2.29 v -63 a 35.4,35.4 0 0 0 12,-27.27 27.05,27.05 0 0 0 -9.32,-20.650005 19.13,19.13 0 0 0 -2.71,-2 v -21.92 c 0,0 -4.57,-52.4 -61.9,-54.68 -1.25,0 -2.52,-0.08 -3.82,-0.08 -16.07,0 -28.37,2.88 -37.79,7.29 a 4.25,4.25 0 0 0 -0.43,0.21 c -30.34,14.48 -30.36,44.92 -30.36,45 v 24.18 a 26.48,26.48 0 0 0 -2.82,1.87 c -4.53,3.360005 -13,11.290005 -13,23.780005 0,0.64 0,1.27 0.07,1.88 a 26,26 0 0 0 9.46,18.29 28.36,28.36 0 0 0 6.24,4.12 c 0,0 0,0.6 -0.06,1.71 -0.24,7.56 -1.17,38.57 -0.7,59.76 l 0.76,0.55 z"
     fill="url(#prefix2__a)"
     id="path33"
     style="fill:url(#prefix2__a)" />
  <g
     opacity="0.7"
     fill="#ffffff"
     id="g37"
     transform="translate(-2.3222645e-7,-0.00731471)">
    <path
       d="m 59,147.12 v 3.3 c 0,10 0,40.81 -0.37,65.13 q -4.05,-2.28 -7.88,-4.88 c -1.12,-0.76 -2.24,-1.54 -3.33,-2.35 l 0.33,-60.1 v -4.12 a 23.66,23.66 0 0 0 3,1.36 26.1,26.1 0 0 0 8.25,1.66 z M 117.62,18.8 C 49,18.8 47.34,72.14 47.34,72.14 v 24.18 h 17.47 c 0,0 -7.59,-19.1 8,-42.73 C 93.48,22.36 131.69,18.8 117.62,18.8 Z"
       id="path35" />
  </g>
  <path
     d="m 77.24,121.99269 a 15,15 0 1 1 -15,-15 15,15 0 0 1 15,15 z m 101.5,0 a 15,15 0 1 1 -15,-15 15,15 0 0 1 15,15 z m -62.52,50.62 h -0.6 c -17.82,-1.27 -21,-14.51 -21.41,-22 h 43.57 c -0.37,7.51 -3.57,20.75 -21.23,21.95 z"
     fill="#ffffff"
     id="path39" />
  <path
     d="m 116.17,170.31269 c -10.53,0 -19.72,-1.64 -19.07,-7.55 0.33,-3.09 38.59,-2.78 38.2,0 0,0 -1.62,7.55 -19.13,7.55 z"
     fill="#ed495c"
     id="path41" />
  <path
     d="m 62.27,103.61269 a 18.36,18.36 0 1 0 18.36,18.38 18.37,18.37 0 0 0 -18.36,-18.38 z m 0,29.93 a 11.58,11.58 0 1 1 11.59,-11.55 11.59,11.59 0 0 1 -11.59,11.55 z"
     fill="#112222"
     id="path43" />
  <path
     d="m 66.32,121.92269 a 5,5 0 0 1 -5,-4.92 4.83,4.83 0 0 1 0.94,-2.86 7.82,7.82 0 1 0 7.83,7.85 7.91,7.91 0 0 0 -0.15,-1.55 5.08,5.08 0 0 1 -3.62,1.48 z m 97.46,-18.31 a 18.36,18.36 0 1 0 18.35,18.38 18.37,18.37 0 0 0 -18.35,-18.38 z m 0,29.93 a 11.58,11.58 0 1 1 11.58,-11.55 11.6,11.6 0 0 1 -11.58,11.55 z"
     fill="#112222"
     id="path45" />
  <path
     d="m 167.83,121.92269 a 5,5 0 0 1 -5,-4.92 4.83,4.83 0 0 1 0.94,-2.86 7.82,7.82 0 1 0 7.85,7.82 7.91,7.91 0 0 0 -0.15,-1.55 5.05,5.05 0 0 1 -3.64,1.51 z m -75.62,92.81 a 3.38,3.38 0 0 0 -3.38,3.39 v 9.23 q 3.35,0.79 6.77,1.37 v -10.6 a 3.39,3.39 0 0 0 -3.39,-3.39 z m 23.71,0 a 3.39,3.39 0 0 0 -3.39,3.39 v 12.23 h 2.67 c 1.38,0 2.75,0 4.11,-0.08 v -12.15 a 3.39,3.39 0 0 0 -3.39,-3.39 z m 22.86,0 a 3.38,3.38 0 0 0 -3.38,3.39 v 10.5 q 3.42,-0.6 6.77,-1.41 v -9.09 a 3.39,3.39 0 0 0 -3.39,-3.39 z m 19.9,0 a 3.39,3.39 0 0 0 -3.39,3.39 v 5.1 c 2.3,-0.85 4.56,-1.78 6.78,-2.77 v -2.33 a 3.39,3.39 0 0 0 -3.39,-3.39 z"
     fill="#112222"
     id="path47" />
  <path
     d="m 185.38,93.892685 -0.31,-0.2 v -19.54 a 68,68 0 0 0 -10.17,-28.95 c -8.39,-13.21 -25.43,-28.95 -59,-28.95 -20.39,0 -47.85,4.82 -62.85,27.78 a 56,56 0 0 0 -9.05,28.1 v 21.61 c -0.27,0 -0.52,0.08 -0.75,0.13 -6.48,1.26 -23.05,4.32 -23.05,4.32 v 12.610005 c 4.89,1.25 7.05,3 8.57,5.77 -3,16.51 7.48,27.33 15.23,31.75 v 57.4 c 0.86,0.68 1.74,1.35 2.63,2 l 0.76,0.55 c 1.09,0.81 2.21,1.59 3.33,2.35 v -61.3 a 38.78,38.78 0 0 0 8.25,1 c 2.11,0.1 4.57,0.16 7.46,0.19 14.94,0.18 22.51,-6.67 22.51,-6.67 10.62,-9.54 10.08,-20.16 14,-29.17 3.29,-7.47 9.3,-8.62 11.25,-8.79 2,0.17 8,1.32 11.24,8.79 4,9 3.42,19.63 14.05,29.17 0,0 7.56,6.85 22.51,6.67 8.23,-0.1 12.91,-0.36 16.27,-1.4 v 62.37 c 1.14,-0.73 2.27,-1.5 3.38,-2.29 1.11,-0.79 2.28,-1.64 3.39,-2.5 v -59 a 39.2,39.2 0 0 0 11.97,-24.18 c 0.13,-0.34 0.25,-0.68 0.37,-1 2.35,-6.49 3.24,-9.73 11,-11.71 V 98.192685 c 0,0 -16.43,-3.02 -22.99,-4.3 z M 88.22,133.89269 c -6.67,7.52 -23.22,9.1 -31.34,7.7 -8.12,-1.4 -18.65,-11.7 -17.1,-29.53 0,0 0.9,-6.84 13,-8.82 12.1,-1.98 31.7,-1.8 36.56,3.42 4.86,5.22 5.54,19.63 -1.12,27.19 z m 26,-39.260005 c -5.46,0 -17.91,-0.72 -17.91,-0.72 -12,-0.85 -22.3,-1.2 -30.65,-1.22 a 3.4,3.4 0 0 0 -2.28,-2.41 4.54,4.54 0 0 0 -0.53,-0.12 30.36,30.36 0 0 0 -12.14,1 v -19.02 a 50.19,50.19 0 0 1 8.2,-24.67 c 10.76,-16.22 29.94,-24.48 57.01,-24.48 24.35,0 42.22,8.61 53.12,25.58 a 62.53,62.53 0 0 1 9.26,25.93 v 16.11 a 33.38,33.38 0 0 0 -16.23,-0.62 3.37,3.37 0 0 0 -2.59,2.65 c -7.72,0.1 -16.89,0.46 -27.35,1.2 0,0.03 -12.45,0.7 -17.9,0.75 z m 57.34,47.000005 c -8.1,1.44 -24.67,-0.18 -31.33,-7.74 -6.66,-7.56 -6,-22 -1.08,-27.19 4.92,-5.19 24.49,-5.41 36.55,-3.42 12.06,1.99 13,8.82 13,8.82 1.53,17.79 -9.02,28.05 -17.13,29.49 z"
     fill="#112222"
     id="path49" />
  <path
     d="m 141.34,147.21269 h -50.7 l 0.19,3.56 c 0.36,7.09 3.48,23.73 24.55,25.23 h 1.1 l 0.49,-0.08 c 20.78,-1.51 23.84,-18.08 24.19,-25.15 z m -10.05,14.16 c -2.6,4.09 -7.16,7.27 -15,7.8 h -0.7 c -7.73,-0.61 -12.28,-3.78 -14.87,-7.84 a 20,20 0 0 1 -2.72,-7.34 h 36 a 20.25,20.25 0 0 1 -2.71,7.38 z"
     fill="#112222"
     id="path51" />
  <g
     opacity="0.6"
     fill="#ffffff"
     id="g55"
     transform="translate(-2.3222645e-7,-0.00731471)">
    <path
       d="m 110,37.15 c 0.15,1 -1.22,2 -3,2.25 -1.78,0.25 -3.45,-0.26 -3.6,-1.22 -0.15,-0.96 1.22,-2 3.06,-2.25 1.84,-0.25 3.36,0.26 3.54,1.22 z m -7,-4.67 c 0.38,1.23 -1.57,2.93 -4.35,3.78 -2.78,0.85 -5.35,0.55 -5.73,-0.68 -0.38,-1.23 1.57,-2.94 4.35,-3.79 2.78,-0.85 5.36,-0.55 5.73,0.69 z m -1.06,7.23 c 0.37,1.1 -1.16,2.6 -3.41,3.35 -2.25,0.75 -4.37,0.48 -4.74,-0.62 -0.37,-1.1 1.16,-2.6 3.41,-3.36 2.25,-0.76 4.37,-0.47 4.74,0.63 z M 90.46,45 c 1,1.27 -0.65,4.11 -3.59,6.33 -2.94,2.22 -6.11,3 -7.07,1.74 -0.96,-1.26 0.65,-4.11 3.59,-6.33 C 86.33,44.52 89.5,43.7 90.46,45 Z M 77.85,55.94 c 1.1,0.47 1.07,3 -0.08,5.64 -1.15,2.64 -3,4.4 -4,3.92 -1,-0.48 -1.07,-3 0.07,-5.64 1.14,-2.64 2.91,-4.4 4.01,-3.92 z m -3.08,20.55 c -0.41,2.83 -2,4.94 -3.5,4.72 -1.5,-0.22 -2.41,-2.7 -2,-5.53 0.41,-2.83 2,-4.93 3.5,-4.71 1.5,0.22 2.42,2.69 2,5.52 z m 5.23,-32 c 1.37,0.66 4,0.1 6.6,-1.52 3.11,-2 4.89,-4.74 4,-6.2 A 1.91,1.91 0 0 0 89.28,35.97 79.14,79.14 0 0 0 80,44.49 Z m -9,12.04 c 1.24,0.42 3.3,-0.88 4.8,-3.12 1.5,-2.24 1.91,-4.41 1.2,-5.48 a 70,70 0 0 0 -4.16,5.66 C 72.18,54.58 71.58,55.56 71,56.53 Z M 67.35,71 c 1.41,0.21 2.9,-1.93 3.32,-4.79 0.42,-2.86 -0.39,-5.33 -1.8,-5.54 h -0.09 a 56.89,56.89 0 0 0 -3.21,7.76 c 0.26,1.39 0.9,2.4 1.78,2.57 z"
       id="path53" />
  </g>
</svg>
