<?xml version="1.0" encoding="UTF-8" standalone="no"?>
<svg
   viewBox="0 0 512.00018 512"
   version="1.1"
   id="svg22"
   sodipodi:docname="0fe0db3acf77877a4886aea33f8813f9.svg"
   width="512.00018"
   height="512"
   xmlns:inkscape="http://www.inkscape.org/namespaces/inkscape"
   xmlns:sodipodi="http://sodipodi.sourceforge.net/DTD/sodipodi-0.dtd"
   xmlns="http://www.w3.org/2000/svg"
   xmlns:svg="http://www.w3.org/2000/svg">
  <defs
     id="defs26" />
  <sodipodi:namedview
     id="namedview24"
     pagecolor="#ffffff"
     bordercolor="#666666"
     borderopacity="1.0"
     inkscape:pageshadow="2"
     inkscape:pageopacity="0.0"
     inkscape:pagecheckerboard="0" />
  <g
     data-name="Layer 3"
     id="g20"
     transform="translate(-2.9210688e-6,-0.03867282)">
    <path
       d="M 512,256 A 256,256 0 1 1 437,75 255.16,255.16 0 0 1 512,256 Z"
       fill="#56ba90"
       id="path2" />
    <ellipse
       cx="77.879997"
       cy="233.08"
       rx="36.66"
       ry="47.580002"
       fill="#bfeafc"
       id="ellipse4" />
    <ellipse
       cx="434.12"
       cy="233.08"
       rx="36.66"
       ry="47.580002"
       fill="#bfeafc"
       id="ellipse6" />
    <path
       d="m 431.25,237 c 0,1.29 0,2.57 -0.06,3.85 -1.31,45.11 -25.61,85.3 -63.2,112.21 -1.79,1.28 -3.61,2.54 -5.45,3.76 -29.54,19.46 -66.46,31.04 -106.54,31.04 -40.81,0 -78.37,-12 -108.15,-32.16 -1.84,-1.24 -3.66,-2.52 -5.44,-3.83 -36.68,-26.9 -60.31,-66.58 -61.6,-111 0,-1.28 -0.06,-2.56 -0.06,-3.85 v -1.32 c 0.39,-39.42 18.33,-75.23 47.44,-101.93 q 2.61,-2.38 5.34,-4.68 l 0.07,-0.06 c 31.63,-26.61 74.79,-42.95 122.4,-42.95 47.61,0 90.77,16.34 122.35,42.86 l 0.07,0.06 c 1.78,1.49 3.52,3 5.22,4.57 l 0.12,0.11 c 29.11,26.7 47.05,62.51 47.44,101.93 0.05,0.48 0.05,0.92 0.05,1.39 z m -24.2,225.71 a 256.09,256.09 0 0 1 -302.1,0 c 39.87,-34 92.88,-54.79 151.05,-54.79 58.17,0 111.18,20.75 151.05,54.79 z"
       fill="#f5f5fa"
       id="path8" />
    <path
       d="m 252.94,339.74 c -40.36,0 -78.76,4.26 -110.53,12.13 1.78,1.31 3.6,2.59 5.44,3.83 30.52,-7.12 66.9,-11 105.09,-11 40.09,0 78.18,4.23 109.6,12.05 1.84,-1.22 3.66,-2.48 5.45,-3.76 -32.62,-8.58 -72.76,-13.25 -115.05,-13.25 z M 133.65,128.94 c 27.48,1.9 45.19,15.08 62.35,27.86 17.48,13 34,25.31 59.93,25.31 25.93,0 42.49,-12.29 60,-25.31 17.2,-12.78 34.94,-26 62.42,-27.86 l 0.07,0.06 5.34,4.68 c -29,0.42 -47.23,14 -64.88,27.09 -17.4,12.93 -35.39,26.3 -63,26.3 -27.61,0 -45.55,-13.37 -62.92,-26.3 -17.62,-13.11 -35.82,-26.67 -64.81,-27.09 z m 297.54,111.88 q -5.1,1.2 -10.6,2.33 C 377.14,252.11 318.69,257 256,257 193.31,257 134.86,252.07 91.41,243.11 q -5.49,-1.12 -10.6,-2.33 v -5.17 q 5.59,1.35 11.66,2.6 C 135.55,247.14 193.64,252 256,252 c 62.36,0 120.45,-4.9 163.58,-13.79 q 6.06,-1.25 11.66,-2.6 z"
       fill="#d9deeb"
       id="path10" />
    <path
       d="m 133.33,257.59 a 74.19,74.19 0 0 1 2.07,-17.49 c 8.69,-35.94 45.06,-52.75 73.85,-35 28.32,17.5 58.9,20.81 93.35,-0.14 28.32,-17.23 63.93,-1.86 73.47,33 a 74,74 0 0 1 2.6,19.55 c 0,104.68 -245.34,104.68 -245.34,0.08 z"
       fill="#bfeafc"
       id="path12" />
    <ellipse
       cx="195.53"
       cy="264.98999"
       rx="9.8900003"
       ry="26.52"
       fill="#2c91cc"
       id="ellipse14" />
    <ellipse
       cx="316.47"
       cy="264.98999"
       rx="9.8900003"
       ry="26.52"
       fill="#2c91cc"
       id="ellipse16" />
    <path
       d="m 332.93,420.61 c -10.11,13.65 -41.26,23.9 -76.93,23.9 -35.67,0 -66.82,-10.25 -76.93,-23.9 -1.64,0.56 -3.26,1.13 -4.88,1.73 10.42,15.89 42.65,27.17 81.81,27.17 39.16,0 71.39,-11.28 81.81,-27.17 -1.62,-0.6 -3.24,-1.17 -4.88,-1.73 z M 256,482.16 a 153.94,153.94 0 0 0 -74.23,18.91 q 3.45,1.05 6.94,2 a 150.34,150.34 0 0 1 134.58,0 q 3.49,-0.94 6.94,-2 A 153.94,153.94 0 0 0 256,482.16 Z"
       fill="#d9deeb"
       id="path18" />
  </g>
</svg>
