<?xml version="1.0" encoding="UTF-8" standalone="no"?>
<svg
   viewBox="0 0 512 512"
   version="1.1"
   id="svg38"
   sodipodi:docname="2113dd7586730c5e7572238175409992.svg"
   width="512"
   height="512"
   xmlns:inkscape="http://www.inkscape.org/namespaces/inkscape"
   xmlns:sodipodi="http://sodipodi.sourceforge.net/DTD/sodipodi-0.dtd"
   xmlns="http://www.w3.org/2000/svg"
   xmlns:svg="http://www.w3.org/2000/svg">
  <defs
     id="defs42" />
  <sodipodi:namedview
     id="namedview40"
     pagecolor="#ffffff"
     bordercolor="#666666"
     borderopacity="1.0"
     inkscape:pageshadow="2"
     inkscape:pageopacity="0.0"
     inkscape:pagecheckerboard="0" />
  <g
     data-name="Layer 3"
     id="g36">
    <circle
       cx="256"
       cy="256"
       r="256"
       fill="#005ba0"
       id="circle2" />
    <path
       d="m 404.12,464.82 a 256.1,256.1 0 0 1 -296.24,0 129.17,129.17 0 0 1 86.24,-32.82 h 123.76 a 129.17,129.17 0 0 1 86.24,32.82 z"
       fill="#bfeafc"
       id="path4" />
    <path
       d="M 374.79,445.11 A 129.07,129.07 0 0 0 317.88,432 H 194.12 a 129.07,129.07 0 0 0 -56.91,13.13 c 29.45,19.75 71.79,32.14 118.79,32.14 47,0 89.34,-12.39 118.79,-32.16 z"
       fill="#9ddefb"
       id="path6" />
    <circle
       cx="256"
       cy="256"
       r="256"
       fill="none"
       id="circle8" />
    <path
       fill="#ffffff"
       d="m 251.5,97.93 h 10 v 65.03 h -10 z"
       id="path10" />
    <circle
       cx="256.5"
       cy="85.160004"
       r="30.26"
       fill="#ffcc66"
       id="circle12" />
    <path
       d="m 273.07,86.24 a 3.5,3.5 0 0 1 -3.5,-3.5 10.66,10.66 0 0 0 -10.65,-10.64 3.5,3.5 0 0 1 0,-7 17.66,17.66 0 0 1 17.65,17.64 3.5,3.5 0 0 1 -3.5,3.5 z"
       fill="#ffffff"
       id="path14" />
    <path
       d="m 106.31,320.23 a 4.8,4.8 0 0 1 -4.8,-4.8 v -66 a 4.8,4.8 0 0 1 9.6,0 v 66 a 4.8,4.8 0 0 1 -4.8,4.8 z m 299.38,0 a 4.8,4.8 0 0 1 -4.8,-4.8 v -66 a 4.8,4.8 0 0 1 9.6,0 v 66 a 4.8,4.8 0 0 1 -4.8,4.8 z"
       fill="#9ddefb"
       id="path16" />
    <path
       d="M 358.25,408.35 H 154.71 a 28.6,28.6 0 0 1 -28.6,-28.6 V 207.83 a 28.56,28.56 0 0 1 7,-18.78 l 31.12,-35.72 a 28.61,28.61 0 0 1 21.57,-9.82 h 141.3 a 28.61,28.61 0 0 1 21.57,9.82 l 31.12,35.72 a 28.56,28.56 0 0 1 7,18.78 v 171.92 a 28.6,28.6 0 0 1 -28.54,28.6 z"
       fill="#bfeafc"
       id="path18" />
    <circle
       cx="199.22"
       cy="245.39"
       r="32.09"
       fill="#ffffff"
       id="circle20" />
    <path
       d="m 199.22,281.32 a 35.94,35.94 0 1 1 35.93,-35.93 36,36 0 0 1 -35.93,35.93 z m 0,-64.19 a 28.26,28.26 0 1 0 28.25,28.26 28.29,28.29 0 0 0 -28.25,-28.26 z"
       fill="#9ddefb"
       id="path22" />
    <circle
       cx="313.73999"
       cy="245.39"
       r="32.09"
       fill="#ffffff"
       id="circle24" />
    <path
       d="m 313.74,281.32 a 35.94,35.94 0 1 1 35.93,-35.93 36,36 0 0 1 -35.93,35.93 z m 0,-64.19 A 28.26,28.26 0 1 0 342,245.39 28.29,28.29 0 0 0 313.74,217.13 Z"
       fill="#9ddefb"
       id="path26" />
    <path
       d="m 193.11,369.66 a 23.24,23.24 0 1 1 0,-46.48 h 126.74 a 23.24,23.24 0 0 1 0,46.48 z"
       fill="#ffffff"
       id="path28" />
    <path
       d="m 319.85,326.78 a 19.64,19.64 0 0 1 19.64,19.64 19.64,19.64 0 0 1 -19.64,19.64 H 193.11 a 19.64,19.64 0 0 1 -19.64,-19.64 19.64,19.64 0 0 1 19.64,-19.64 h 126.74 m 0,-7.2 H 193.11 a 26.84,26.84 0 0 0 0,53.68 h 126.74 a 26.84,26.84 0 0 0 0,-53.68 z"
       fill="#9ddefb"
       id="path30" />
    <path
       d="m 339.49,346.42 a 19.59,19.59 0 0 1 -4.89,13 c -0.28,0.32 -0.56,0.62 -0.86,0.92 a 19.55,19.55 0 0 1 -9.77,5.31 19.33,19.33 0 0 1 -4.12,0.44 H 193.11 a 19.31,19.31 0 0 1 -3.5,-0.32 19.64,19.64 0 0 1 -11.25,-32.29 c 0.28,-0.32 0.56,-0.62 0.86,-0.92 a 19.61,19.61 0 0 1 10.39,-5.43 19.31,19.31 0 0 1 3.5,-0.32 h 126.74 a 19.33,19.33 0 0 1 4.12,0.44 19.63,19.63 0 0 1 15.52,19.2 z"
       fill="#ffffff"
       id="path32" />
    <path
       fill="#e7eaf2"
       d="m 254.6,326.78 h 5 v 39.28 h -5 z m -16.24,0 h 5 v 39.28 h -5 z m 33.74,0 h 5 v 39.28 h -5 z m 15.63,0 h 5 v 39.28 h -5 z m 15.62,0 h 5 v 39.28 h -5 z m 20.65,0.44 v 38.4 a 19.33,19.33 0 0 1 -4.12,0.44 H 319 v -39.28 h 0.88 a 19.33,19.33 0 0 1 4.12,0.44 z m 15.49,19.2 a 19.59,19.59 0 0 1 -4.89,13 v -25.97 a 19.59,19.59 0 0 1 4.89,12.97 z M 222.11,326.78 h 5 v 39.28 h -5 z m -16.25,0 h 5 v 39.28 h -5 z m -11.25,0 v 39.28 h -1.5 a 19.31,19.31 0 0 1 -3.5,-0.32 V 327.1 a 19.31,19.31 0 0 1 3.5,-0.32 z m -16.25,6.67 v 25.94 a 19.65,19.65 0 0 1 0,-25.94 z"
       id="path34" />
  </g>
</svg>
