<?xml version="1.0" encoding="UTF-8" standalone="no"?>
<svg
   data-name="Layer 1"
   viewBox="0 0 512.00018 512.05688"
   version="1.1"
   id="svg26"
   sodipodi:docname="ce1a6b7e117e7c0b18b81f089c5c4929.svg"
   width="512.00018"
   height="512.05688"
   xmlns:inkscape="http://www.inkscape.org/namespaces/inkscape"
   xmlns:sodipodi="http://sodipodi.sourceforge.net/DTD/sodipodi-0.dtd"
   xmlns="http://www.w3.org/2000/svg"
   xmlns:svg="http://www.w3.org/2000/svg">
  <defs
     id="defs30" />
  <sodipodi:namedview
     id="namedview28"
     pagecolor="#ffffff"
     bordercolor="#666666"
     borderopacity="1.0"
     inkscape:pageshadow="2"
     inkscape:pageopacity="0.0"
     inkscape:pagecheckerboard="0" />
  <path
     d="m 512,256.03541 a 255.16,255.16 0 0 1 -75,181 q -3.69,3.69 -7.54,7.24 a 256,256 0 1 1 82.54,-188.24 z"
     fill="#e7eaf2"
     id="path2" />
  <path
     d="m 119.26,308.57541 a 20,20 0 0 1 -20,-20 v -136.73 a 20,20 0 1 1 40,0 v 136.73 a 20,20 0 0 1 -20,20 z m 273.48,0 a 20,20 0 0 1 -20,-20 v -136.73 a 20,20 0 1 1 40,0 v 136.73 a 20,20 0 0 1 -20,20 z"
     fill="#112222"
     id="path4" />
  <path
     d="m 419.29,303.86541 c 0,90.18 -326.58,90.18 -326.58,0 a 163.29,163.29 0 0 1 326.58,0 z"
     fill="#d6a64d"
     id="path6" />
  <path
     d="m 355.05,213.34541 a 5,5 0 0 1 -4.33,-2.49 c -16.87,-29.09 -57.31,-37.82 -57.72,-37.88 a 5,5 0 1 1 2,-9.79 c 1.83,0.38 45.19,9.64 64.34,42.65 a 5,5 0 0 1 -1.82,6.84 4.94,4.94 0 0 1 -2.47,0.67 z"
     fill="#ffcc66"
     id="path8" />
  <circle
     cx="180.59"
     cy="261.55539"
     r="25.4"
     fill="#64d9a8"
     id="circle10" />
  <path
     d="m 180.59,291.75541 a 30.2,30.2 0 1 1 30.2,-30.2 30.24,30.24 0 0 1 -30.2,30.2 z m 0,-50.8 a 20.6,20.6 0 1 0 20.6,20.6 20.62,20.62 0 0 0 -20.6,-20.6 z"
     fill="#fff3da"
     id="path12" />
  <path
     d="m 256,340.82541 a 24.73,24.73 0 0 1 -24.7,-24.7 6,6 0 0 1 12,0 12.7,12.7 0 0 0 25.4,0 6,6 0 0 1 12,0 24.73,24.73 0 0 1 -24.7,24.7 z"
     fill="#593202"
     id="path14" />
  <circle
     cx="331.41"
     cy="261.55539"
     r="25.4"
     fill="#64d9a8"
     id="circle16" />
  <path
     d="m 331.41,291.75541 a 30.2,30.2 0 1 1 30.2,-30.2 30.24,30.24 0 0 1 -30.2,30.2 z m 0,-50.8 a 20.6,20.6 0 1 0 20.6,20.6 20.62,20.62 0 0 0 -20.6,-20.6 z"
     fill="#fff3da"
     id="path18" />
  <path
     d="m 429.48,444.29541 a 256,256 0 0 1 -347,0 l 1.36,-1.38 a 168.23,168.23 0 0 1 119.3,-49.42 h 105.68 a 168.19,168.19 0 0 1 120.66,50.8 z"
     fill="#d6a64d"
     id="path20" />
  <path
     d="m 375.73,407.28541 c -23.67,19.52 -68.05,32.67 -118.88,32.67 -51.25,0 -95.93,-13.36 -119.45,-33.15 a 168.09,168.09 0 0 1 65.78,-13.31 h 105.64 a 168.18,168.18 0 0 1 66.91,13.79 z"
     fill="#ac7f34"
     id="path22" />
  <rect
     width="512"
     height="512"
     rx="256"
     fill="none"
     id="rect24"
     x="0"
     y="0.035407979" />
</svg>
