<?xml version="1.0" encoding="UTF-8" standalone="no"?>
<svg
   viewBox="0 0 512 512.00043"
   version="1.1"
   id="svg22"
   sodipodi:docname="d11f5aafc63e726b2c790ea7bb989be1.svg"
   width="512"
   height="512.00043"
   xmlns:inkscape="http://www.inkscape.org/namespaces/inkscape"
   xmlns:sodipodi="http://sodipodi.sourceforge.net/DTD/sodipodi-0.dtd"
   xmlns="http://www.w3.org/2000/svg"
   xmlns:svg="http://www.w3.org/2000/svg">
  <defs
     id="defs26" />
  <sodipodi:namedview
     id="namedview24"
     pagecolor="#ffffff"
     bordercolor="#666666"
     borderopacity="1.0"
     inkscape:pageshadow="2"
     inkscape:pageopacity="0.0"
     inkscape:pagecheckerboard="0" />
  <g
     data-name="Layer 3"
     id="g20">
    <circle
       cx="256"
       cy="256"
       r="256"
       fill="#6d6bde"
       id="circle2" />
    <path
       d="m 363,438.18 c -21.46,0 -38.86,10.91 -38.86,24.37 0,13.46 17.4,24.36 38.86,24.36 1.33,0 2.65,0 3.94,-0.12 a 256.76,256.76 0 0 0 34.32,-20 15.74,15.74 0 0 0 0.61,-4.27 C 401.85,449.09 384.45,438.18 363,438.18 Z m -175.12,24.37 c 0,-13.46 -17.4,-24.37 -38.86,-24.37 -21.46,0 -38.87,10.91 -38.87,24.37 a 15.74,15.74 0 0 0 0.61,4.27 256.76,256.76 0 0 0 34.32,20 c 1.29,0.08 2.61,0.12 3.94,0.12 21.46,-0.03 38.86,-10.94 38.86,-24.39 z"
       fill="#fff3da"
       id="path4" />
    <path
       d="m 396.94,469.74 a 256.15,256.15 0 0 1 -281.88,0 C 150.29,439.8 200.4,421.1 256,421.1 c 55.6,0 105.71,18.7 140.94,48.64 z"
       fill="#fb9b47"
       id="path6" />
    <path
       d="m 303.22,432.08 c 0,27.67 -94.44,27.67 -94.44,0 v -83.87 h 94.44 z"
       fill="#ffe0a0"
       id="path8" />
    <path
       d="M 421.24,304.46 H 400.69 V 205 h 20.55 a 14.4,14.4 0 0 1 14.4,14.4 v 70.66 a 14.4,14.4 0 0 1 -14.4,14.4 z M 90.76,206.2 h 20.54 v 99.46 H 90.76 a 14.4,14.4 0 0 1 -14.4,-14.4 V 220.6 a 14.4,14.4 0 0 1 14.4,-14.4 z"
       fill="#fff3da"
       id="path10" />
    <circle
       cx="256"
       cy="255.92999"
       r="153.66"
       fill="#fb9b47"
       id="circle12" />
    <ellipse
       cx="256"
       cy="255.92999"
       rx="117.62"
       ry="107.17"
       fill="#ffe9bd"
       id="ellipse14" />
    <path
       d="m 256,365.6 c -66.23,0 -120.12,-49.19 -120.12,-109.67 0,-60.48 53.89,-109.67 120.12,-109.67 66.23,0 120.12,49.2 120.12,109.67 0,60.47 -53.89,109.67 -120.12,109.67 z m 0,-214.34 c -63.48,0 -115.12,47 -115.12,104.67 0,57.67 51.64,104.67 115.12,104.67 63.48,0 115.12,-47 115.12,-104.67 0,-57.67 -51.64,-104.67 -115.12,-104.67 z"
       fill="#ffffff"
       id="path16" />
    <path
       d="m 233,249.07 a 3.5,3.5 0 0 1 -3.5,-3.5 21.84,21.84 0 1 0 -43.68,0 3.5,3.5 0 0 1 -7,0 28.84,28.84 0 1 1 57.68,0 3.5,3.5 0 0 1 -3.5,3.5 z m 96.73,0 a 3.5,3.5 0 0 1 -3.5,-3.5 21.84,21.84 0 0 0 -43.68,0 3.5,3.5 0 0 1 -7,0 28.84,28.84 0 0 1 57.68,0 3.5,3.5 0 0 1 -3.5,3.5 z m -73.67,76.11 c -11.81,0 -22.48,-4.95 -27.89,-12.94 a 3.5002286,3.5002286 0 0 1 5.8,-3.92 c 4.09,6 12.85,9.91 22.27,9.86 9.42,-0.05 18.14,-4 22.16,-10.09 a 3.5001857,3.5001857 0 1 1 5.84,3.86 c -5.35,8.1 -16.07,13.17 -28,13.23 z"
       fill="#112222"
       id="path18" />
  </g>
</svg>
