<?xml version="1.0" encoding="UTF-8" standalone="no"?>
<svg
   data-name="Layer 1"
   viewBox="0 0 512.00018 512.0387"
   version="1.1"
   id="svg26"
   sodipodi:docname="0a1b78d1498cc318260d8a0d68ea802f.svg"
   width="512.00018"
   height="512.0387"
   xmlns:inkscape="http://www.inkscape.org/namespaces/inkscape"
   xmlns:sodipodi="http://sodipodi.sourceforge.net/DTD/sodipodi-0.dtd"
   xmlns="http://www.w3.org/2000/svg"
   xmlns:svg="http://www.w3.org/2000/svg">
  <defs
     id="defs30" />
  <sodipodi:namedview
     id="namedview28"
     pagecolor="#ffffff"
     bordercolor="#666666"
     borderopacity="1.0"
     inkscape:pageshadow="2"
     inkscape:pageopacity="0.0"
     inkscape:pagecheckerboard="0" />
  <rect
     width="512"
     height="512"
     rx="256"
     fill="#fcad6b"
     id="rect2"
     x="0"
     y="0" />
  <path
     d="m 258.42,77.81 a 130.84,130.84 0 0 1 130.85,130.84 v 173 A 33.3,33.3 0 0 1 356,415 H 160.88 a 33.3,33.3 0 0 1 -33.3,-33.3 v -173 A 130.84,130.84 0 0 1 258.42,77.81 Z"
     fill="#3b7d5f"
     id="path4" />
  <path
     fill="#2d5e47"
     d="m 156.1,415 h 204.66 v 46.11 H 156.1 Z"
     id="path6" />
  <path
     d="m 390.39,473.93 a 256.25,256.25 0 0 1 -266.77,1.23 l 32.48,-14.05 h 204.65 z"
     fill="#499c78"
     id="path8" />
  <circle
     cx="189.58"
     cy="438.06"
     r="6.7399998"
     fill="#499c78"
     id="circle10" />
  <circle
     cx="327.26001"
     cy="438.06"
     r="6.7399998"
     fill="#499c78"
     id="circle12" />
  <path
     d="m 110.09,246.53 h 17.48 v 101.1 H 110.09 A 27.42,27.42 0 0 1 82.67,320.21 v -46.26 a 27.42,27.42 0 0 1 27.42,-27.42 z m 296.76,101.1 h -17.48 v -101.1 h 17.48 a 27.42,27.42 0 0 1 27.42,27.42 v 46.26 a 27.42,27.42 0 0 1 -27.42,27.42 z"
     fill="#2d5e47"
     id="path14" />
  <rect
     x="106.36"
     y="197.75999"
     width="304.12"
     height="103.49"
     rx="11.03"
     fill="#9ddefb"
     id="rect16" />
  <path
     fill="#bfeafc"
     d="m 175.44,301.25 h -48.53 l 50,-103.49 h 48.53 z m 110.17,0 h -48.54 l 50,-103.49 h 48.54 z"
     id="path18" />
  <path
     d="m 215.06,264 a 3.5,3.5 0 0 1 -3.5,-3.5 18.4,18.4 0 0 0 -36.79,0 3.5,3.5 0 0 1 -7,0 25.4,25.4 0 0 1 50.79,0 3.5,3.5 0 0 1 -3.5,3.5 z m 130.51,0 a 3.5,3.5 0 0 1 -3.5,-3.5 18.39,18.39 0 0 0 -36.78,0 3.5,3.5 0 0 1 -7,0 25.39,25.39 0 0 1 50.78,0 3.49,3.49 0 0 1 -3.5,3.5 z"
     fill="#005ba0"
     id="path20" />
  <path
     d="m 236.53,339.34 a 21.9,21.9 0 1 0 43.79,0 z"
     fill="#ffffff"
     id="path22" />
  <path
     d="M 512,256 A 256,256 0 1 1 437,75 255.16,255.16 0 0 1 512,256 Z"
     fill="none"
     id="path24" />
</svg>
