<?xml version="1.0" encoding="UTF-8" standalone="no"?>
<svg
   data-name="prefix Layer 1"
   viewBox="0 0 563.66 563.68991"
   version="1.1"
   id="svg22"
   sodipodi:docname="a72bb3f2e3f2a858f1b7022f82749177.svg"
   width="563.65997"
   height="563.68988"
   xmlns:inkscape="http://www.inkscape.org/namespaces/inkscape"
   xmlns:sodipodi="http://sodipodi.sourceforge.net/DTD/sodipodi-0.dtd"
   xmlns="http://www.w3.org/2000/svg"
   xmlns:svg="http://www.w3.org/2000/svg">
  <defs
     id="defs26" />
  <sodipodi:namedview
     id="namedview24"
     pagecolor="#ffffff"
     bordercolor="#666666"
     borderopacity="1.0"
     inkscape:pageshadow="2"
     inkscape:pageopacity="0.0"
     inkscape:pagecheckerboard="0" />
  <path
     d="m 563.66,281.83 c 0,115.2 -69.12,214.26 -168.16,258 a 282.72,282.72 0 0 1 -218.12,3.86 C 73.44,502.17 0,400.58 0,281.83 0,126.18 126.18,0 281.83,0 437.48,0 563.66,126.18 563.66,281.83 Z"
     fill="#6353d8"
     id="path2" />
  <path
     d="m 563.66,281.83 c 0,155.65 -126.18,281.83 -281.83,281.83 a 281,281 0 0 1 -104.41,-20 q -4.66,-1.84 -9.25,-3.88 C 69.13,496.1 0,397 0,281.83 0,126.18 126.18,0 281.83,0 437.48,0 563.66,126.18 563.66,281.83 Z"
     fill="none"
     id="path4" />
  <path
     d="m 277.75,77.19 h 8.16 v 49.67 h -8.16 z"
     fill="#c0baef"
     id="path6" />
  <path
     d="M 77.12,264.28 V 282 a 39,39 0 0 0 29.09,37.57 127.73,127.73 0 0 1 -8,-44.58 v -3.7 a 127.73,127.73 0 0 1 8,-44.58 39.12,39.12 0 0 0 -29.09,37.57 z m 212.59,167.51 a 104.68,104.68 0 0 1 40.83,8.26 v -36.32 h -97.41 v 36.32 A 104.68,104.68 0 0 1 274,431.79 Z M 287.27,43 a 21.64,21.64 0 0 1 12.4,4 A 21.73,21.73 0 1 0 269.43,77.23 21.71,21.71 0 0 1 287.27,43 Z"
     fill="#e4e4f9"
     id="path8" />
  <path
     d="M 303.58,59.35 A 21.64,21.64 0 0 0 299.67,47 21.71,21.71 0 0 0 269.43,77.23 21.72,21.72 0 0 0 303.58,59.4 Z M 274,431.79 a 104.68,104.68 0 0 0 -40.83,8.26 c -38.06,16.06 -65,53.8 -65,97.53 v 2.22 q 4.58,2 9.25,3.88 v -6.1 c 0,-43.73 26.89,-81.47 65,-97.53 a 104.7,104.7 0 0 1 40.76,-8.26 z M 107.5,274.93 v -3.7 c 0,-59.83 41.34,-110.47 96.87,-124.76 a 126.25,126.25 0 0 1 31.78,-4.07 H 227 a 126.73,126.73 0 0 0 -31.9,4.07 C 139.56,160.76 98.22,211.4 98.22,271.23 v 3.7 c 0,59.83 41.34,110.46 96.88,124.76 a 126.74,126.74 0 0 0 31.91,4 h 8.9 a 126.9,126.9 0 0 1 -31.57,-4 C 148.84,385.39 107.5,334.76 107.5,274.93 Z"
     fill="#ffffff"
     id="path10" />
  <path
     d="m 331.43,440.47 c -0.3,-0.13 -0.59,-0.29 -0.89,-0.42 a 104.68,104.68 0 0 0 -40.83,-8.26 h -6.5 a 104.68,104.68 0 0 0 -40.83,8.26 c -38.07,16.06 -65,53.8 -65,97.53 v 6.08 A 282.72,282.72 0 0 0 395.5,539.8 v -2.22 c 0,-43.38 -26.5,-80.84 -64.07,-97.11 z m 126,-213.83 c -18.27,-49 -65.62,-84.22 -120.8,-84.22 H 236.29 a 126.27,126.27 0 0 0 -31.9,4.07 c -55.53,14.29 -96.87,64.93 -96.87,124.76 V 275 c 0,59.83 41.34,110.46 96.87,124.76 a 126.81,126.81 0 0 0 31.92,4 h 100.34 c 55.18,0 102.53,-35.13 120.8,-84.21 a 127.83,127.83 0 0 0 8,-44.59 v -3.69 a 127.73,127.73 0 0 0 -8,-44.63 z"
     fill="#ffffff"
     id="path12" />
  <path
     d="m 416.87,272.1 v 2 a 68.55,68.55 0 0 1 -68.52,68.48 h -133 a 68.72,68.72 0 0 1 -68.52,-68.52 v -2 a 68.71,68.71 0 0 1 68.49,-68.48 h 133 a 68.56,68.56 0 0 1 68.52,68.51 z"
     fill="#7878ba"
     id="path14" />
  <circle
     cx="218.64"
     cy="267.66"
     r="19.469999"
     fill="#313444"
     id="circle16" />
  <circle
     cx="345.03"
     cy="267.66"
     r="19.469999"
     fill="#313444"
     id="circle18" />
  <path
     d="M 486.54,264.28 V 282 a 39,39 0 0 1 -29.08,37.57 128,128 0 0 0 8,-44.58 v -3.7 a 127.77,127.77 0 0 0 -8,-44.58 39.12,39.12 0 0 1 29.08,37.57 z M 319.27,142.42 H 244.4 a 41.06,41.06 0 0 1 74.87,0 z"
     fill="#e4e4f9"
     id="path20" />
</svg>
