<?xml version="1.0" encoding="UTF-8" standalone="no"?>
<svg
   viewBox="0 0 20 16.900106"
   version="1.1"
   id="svg4"
   sodipodi:docname="bf3f6eea656ac92e4c57d56b3fd8ef67.svg"
   width="20"
   height="16.900106"
   xmlns:inkscape="http://www.inkscape.org/namespaces/inkscape"
   xmlns:sodipodi="http://sodipodi.sourceforge.net/DTD/sodipodi-0.dtd"
   xmlns="http://www.w3.org/2000/svg"
   xmlns:svg="http://www.w3.org/2000/svg">
  <defs
     id="defs8" />
  <sodipodi:namedview
     id="namedview6"
     pagecolor="#ffffff"
     bordercolor="#666666"
     borderopacity="1.0"
     inkscape:pageshadow="2"
     inkscape:pageopacity="0.0"
     inkscape:pagecheckerboard="0" />
  <path
     fill="#ffffff"
     d="m 17.98,3.1201073 h -6.65 v -1.58 C 11.33,0.68010734 10.64,1.0733679e-4 9.78,1.0733679e-4 H 1.56 C 0.69,-0.00989266 0,0.68010734 0,1.5401073 v 7.67 c 0,0.2 0.11,0.38 0.27,0.49 a 0.61,0.61 0 0 0 0.29,0.07 c 0.08,0 0.2,-0.03 0.26,-0.07 l 1.67,-0.96 h 1.47 v 4.6499997 a 2.03,2.03 0 0 0 2.02,2.02 h 10.7 l 2.5,1.42 a 0.6,0.6 0 0 0 0.26,0.07 c 0.1,0 0.2,-0.02 0.3,-0.07 0.17,-0.09 0.26,-0.29 0.26,-0.49 V 5.1201073 c 0,-1.09 -0.91,-2 -2.02,-2 z m -14.02,2 v 2.51 h -1.6 c -0.1,0 -0.2,0.03 -0.27,0.07 l -0.98,0.56 v -6.72 c 0,-0.24 0.2,-0.44 0.45,-0.44 h 8.22 c 0.24,0 0.44,0.2 0.44,0.44 v 1.58 H 5.96 a 2,2 0 0 0 -2,2 z m 14.93,10.2799997 -1.78,-1.02 a 0.6,0.6 0 0 0 -0.27,-0.07 H 5.96 a 0.92,0.92 0 0 1 -0.92,-0.91 V 5.1201073 c 0,-0.49 0.4,-0.9 0.92,-0.9 h 12.02 c 0.49,0 0.9,0.4 0.9,0.9 V 15.400107 Z"
     id="path2" />
</svg>
