<?xml version="1.0" encoding="UTF-8" standalone="no"?>
<svg
   viewBox="0 0 21.244839 19.129496"
   version="1.1"
   id="svg4"
   sodipodi:docname="046def715d8912c4f59753e94b89b7a1.svg"
   width="21.244839"
   height="19.129496"
   xmlns:inkscape="http://www.inkscape.org/namespaces/inkscape"
   xmlns:sodipodi="http://sodipodi.sourceforge.net/DTD/sodipodi-0.dtd"
   xmlns="http://www.w3.org/2000/svg"
   xmlns:svg="http://www.w3.org/2000/svg">
  <defs
     id="defs8" />
  <sodipodi:namedview
     id="namedview6"
     pagecolor="#ffffff"
     bordercolor="#666666"
     borderopacity="1.0"
     inkscape:pageshadow="2"
     inkscape:pageopacity="0.0"
     inkscape:pagecheckerboard="0" />
  <path
     fill="#ffffff"
     d="M 21.24,18.47 V 7.3 A 7.3,7.3 0 0 0 13.94,0 H 7.3 a 7.3,7.3 0 1 0 0,14.6 h 7.2 c 0,0 0.58,0.04 0.93,0.17 0.34,0.12 0.71,0.42 0.71,0.42 l 4.44,3.66 c 0,0 0.4,0.34 0.55,0.27 0.15,-0.07 0.11,-0.65 0.11,-0.65 z M 7.5,8.79 C 7.5,9.28 7.08,9.67 6.55,9.67 6.03,9.67 5.6,9.27 5.6,8.79 V 5.66 c 0,-0.49 0.43,-0.88 0.95,-0.88 0.53,0 0.95,0.4 0.95,0.88 z m 4.07,1.48 c 0,0.49 -0.43,0.88 -0.95,0.88 -0.52,0 -0.95,-0.39 -0.95,-0.88 v -6.1 c 0,-0.48 0.43,-0.88 0.95,-0.88 0.52,0 0.95,0.4 0.95,0.88 z m 4.06,-1.48 c 0,0.49 -0.42,0.88 -0.95,0.88 -0.52,0 -0.94,-0.4 -0.94,-0.88 V 5.66 c 0,-0.49 0.42,-0.88 0.94,-0.88 0.53,0 0.95,0.4 0.95,0.88 z"
     id="path2" />
</svg>
