<?xml version="1.0" encoding="UTF-8" standalone="no"?>
<svg
   viewBox="0 0 22 18.000179"
   version="1.1"
   id="svg4"
   sodipodi:docname="369db6f1275ac106a996b5bab5091cee.svg"
   width="22"
   height="18.000179"
   xmlns:inkscape="http://www.inkscape.org/namespaces/inkscape"
   xmlns:sodipodi="http://sodipodi.sourceforge.net/DTD/sodipodi-0.dtd"
   xmlns="http://www.w3.org/2000/svg"
   xmlns:svg="http://www.w3.org/2000/svg">
  <defs
     id="defs8" />
  <sodipodi:namedview
     id="namedview6"
     pagecolor="#ffffff"
     bordercolor="#666666"
     borderopacity="1.0"
     inkscape:pageshadow="2"
     inkscape:pageopacity="0.0"
     inkscape:pagecheckerboard="0" />
  <path
     fill="#ffffff"
     d="M 3.35,18 A 0.48,0.48 0 0 1 2.91,17.7 0.47,0.47 0 0 1 3.01,17.2 C 3.54,16.67 4.5,15.38 5.13,13.99 1.95,12.61 0,10.19 0,7.58 0,3.4 4.93,0 11,0 c 6.07,0 11,3.4 11,7.58 0,4.18 -4.93,7.58 -11,7.58 -0.4,0 -0.78,-0.02 -1.16,-0.05 A 8.63,8.63 0 0 1 3.34,18 Z"
     id="path2" />
</svg>
