<?xml version="1.0" encoding="UTF-8" standalone="no"?>
<svg
   version="1.1"
   id="svg4"
   sodipodi:docname="4ee55148575659a719cacaa0d4c7139f.svg"
   width="27.004738"
   height="18.160009"
   xmlns:inkscape="http://www.inkscape.org/namespaces/inkscape"
   xmlns:sodipodi="http://sodipodi.sourceforge.net/DTD/sodipodi-0.dtd"
   xmlns="http://www.w3.org/2000/svg"
   xmlns:svg="http://www.w3.org/2000/svg">
  <defs
     id="defs8" />
  <sodipodi:namedview
     id="namedview6"
     pagecolor="#ffffff"
     bordercolor="#666666"
     borderopacity="1.0"
     inkscape:pageshadow="2"
     inkscape:pageopacity="0.0"
     inkscape:pagecheckerboard="0" />
  <path
     d="m 26.79,9.38 a 0.31,0.31 0 0 0 0,-0.59 L 0.41,0.02 C 0.36,0 0.34,0 0.32,0 0.14,0 0,0.13 0,0.29 0,0.33 0.01,0.37 0.03,0.41 l 3.41,8.67 -3.41,8.68 a 0.29,0.29 0 0 0 -0.02,0.04 0.28,0.28 0 0 0 0,0.06 c 0,0.16 0.13,0.3 0.29,0.3 A 0.3,0.3 0 0 0 0.41,18.14 Z M 0.81,0.79 l 24.03,8 H 3.98 Z m 3.17,8.58 h 20.86 l -24.03,8 z"
     id="path2" />
</svg>
